<svg width="24" height="24" viewBox="0 0 24 24" fill="none" xmlns="http://www.w3.org/2000/svg">
<path d="M14.1202 15.4003L18.7102 10.8103C18.8964 10.6229 19.001 10.3695 19.001 10.1053C19.001 9.84111 18.8964 9.58765 18.7102 9.40029C18.6172 9.30656 18.5066 9.23217 18.3848 9.1814C18.2629 9.13063 18.1322 9.10449 18.0002 9.10449C17.8682 9.10449 17.7375 9.13063 17.6156 9.1814C17.4937 9.23217 17.3831 9.30656 17.2902 9.40029L12.7102 14.0003C12.6172 14.094 12.5066 14.1684 12.3848 14.2192C12.2629 14.27 12.1322 14.2961 12.0002 14.2961C11.8682 14.2961 11.7375 14.27 11.6156 14.2192C11.4937 14.1684 11.3831 14.094 11.2902 14.0003L6.71018 9.40029C6.5232 9.21199 6.26908 9.10567 6.00372 9.10473C5.73836 9.1038 5.48349 9.20831 5.29518 9.39529C5.10688 9.58227 5.00056 9.83639 4.99963 10.1018C4.99869 10.3671 5.10321 10.622 5.29018 10.8103L9.88018 15.4003C10.4427 15.9621 11.2052 16.2777 12.0002 16.2777C12.7952 16.2777 13.5577 15.9621 14.1202 15.4003Z" fill="black"/>
</svg>
